<svg width="25" height="20" viewBox="0 0 25 20" fill="none" xmlns="http://www.w3.org/2000/svg">
<path d="M0.583984 13.3842C1.12403 11.9647 1.95451 10.7938 2.72929 9.49882C3.15349 8.78979 3.34716 7.99071 3.74234 7.27009C4.14917 6.52823 4.58529 5.79708 5.02953 5.07711C5.60374 4.14648 5.97107 3.11059 6.57891 2.19883C6.74954 1.94289 6.98692 1.387 7.23442 1.26324" stroke="#323232" stroke-linecap="round"/>
<path d="M5.19727 15.1004C5.70592 15.1004 6.26191 14.2503 6.59171 13.9205C7.59071 12.9215 8.83568 12.157 9.86925 11.1793C10.3967 10.6804 11.0708 10.0895 11.7345 9.79082C12.0844 9.63336 12.1347 9.31971 12.4913 9.20086" stroke="#323232" stroke-linecap="round"/>
<path d="M9.81055 18.7474C10.6185 18.7474 11.3641 18.0579 12.0512 17.7106C13.9011 16.7754 15.824 15.7415 17.8078 15.1243C19.1082 14.7197 20.4244 14.3351 21.717 13.9205C22.1227 13.7904 23.6953 13.6109 23.8623 13.2769" stroke="#323232" stroke-linecap="round"/>
</svg>
