<svg width="42" height="28" viewBox="0 0 42 28" fill="none" xmlns="http://www.w3.org/2000/svg">
<path d="M3 5.5H0.5L3 1L5.5 5.5H3ZM3 5.5C4.2 12.3 8.5 16.6667 10.5 18" stroke="#323232" stroke-linecap="round" stroke-linejoin="round"/>
<path d="M2.95543 2.19379C2.88427 2.19379 2.75444 2.39419 2.73202 2.46143C2.71186 2.52191 2.6553 2.5684 2.62806 2.63064C2.59709 2.70143 2.57589 2.76495 2.52742 2.82419C2.48279 2.87873 2.4592 2.96465 2.41793 3.02547C2.36493 3.10357 2.29977 3.17344 2.24319 3.24888C2.13911 3.38764 2.05785 3.53718 1.98992 3.69569C1.94193 3.80767 1.89741 3.91677 1.84946 4.02637C1.79302 4.15538 1.70842 4.25868 1.64597 4.38359C1.62627 4.42299 1.59467 4.47299 1.58293 4.5141C1.57137 4.55456 1.53294 4.57956 1.52321 4.61364C1.51148 4.65467 1.49165 4.6893 1.46238 4.72202C1.43454 4.75313 1.44028 4.81244 1.41814 4.83704C1.40022 4.85695 1.3752 4.90585 1.35399 4.91999C1.29755 4.95761 1.48966 4.92109 1.55749 4.92109C1.76504 4.92109 1.9726 4.92109 2.18015 4.92109C2.60673 4.92109 3.0357 4.941 3.46417 4.941C3.76241 4.941 4.06065 4.941 4.3589 4.941C4.37269 4.941 4.46149 4.94256 4.42415 4.941C4.34736 4.9378 4.28861 4.82254 4.25825 4.76183C4.19716 4.63965 4.15641 4.51088 4.10121 4.3847C4.05336 4.27533 4.0435 4.10241 3.94969 4.01641C3.81144 3.88969 3.72911 3.69285 3.6367 3.532C3.53099 3.34798 3.40035 3.16077 3.35358 2.95027C3.33351 2.85998 3.30095 2.77073 3.27837 2.68041C3.25982 2.60621 3.23514 2.57743 3.30491 2.66714C3.50813 2.92842 3.57373 3.26449 3.75172 3.53643C3.82982 3.65574 3.89118 3.76313 3.94195 3.89697C3.98545 4.01165 4.0379 4.16989 4.13107 4.2553C4.27501 4.38725 4.30125 4.63548 4.38433 4.80165C4.40584 4.84465 4.44297 4.92761 4.49825 4.93989C4.57165 4.95621 4.45921 4.96091 4.43742 4.96091C4.32064 4.96091 4.22501 4.9031 4.11448 4.8658C3.9774 4.81953 3.8447 4.75725 3.7108 4.70211C3.4381 4.58982 3.14986 4.52395 2.86032 4.47871C2.65655 4.44687 2.45645 4.34378 2.25093 4.34378C2.16482 4.34378 2.22678 4.32479 2.283 4.32387C2.4195 4.32164 2.57618 4.29593 2.7099 4.26857C2.76225 4.25787 2.80314 4.23184 2.85479 4.22323C2.8953 4.21648 2.6889 4.1509 2.65792 4.14471C2.57075 4.12727 2.4866 4.08667 2.40023 4.06508C2.35406 4.05353 2.49222 4.04032 2.53737 4.02526C2.60484 4.00277 2.67362 3.9841 2.74087 3.96112C2.79456 3.94277 3.01869 3.8849 3.03395 3.81624C3.04594 3.76229 2.91717 3.7901 2.88575 3.78527C2.66506 3.75132 3.09853 3.52219 2.93552 3.46786" stroke="#323232" stroke-linecap="round"/>
<path d="M14 23.5L16.5 18L19 24L21.4062 18.2251L21.5 18" stroke="#323232" stroke-linecap="round" stroke-linejoin="round"/>
<path d="M24.0892 20.047C23.4876 20.047 23.0465 19.9364 22.6039 20.3599C22.4049 20.5502 22.3243 20.9104 22.2159 21.1572C22.072 21.485 22.0059 21.8072 22.0059 22.1646C22.0059 22.8842 22.3195 23.3299 22.9189 23.7121C23.3984 24.0177 23.9518 24.0731 24.505 24.0593C24.8716 24.0501 25.2011 23.7972 25.5167 23.6349C25.84 23.4687 26.0956 23.274 26.3076 22.9791C26.5008 22.7103 26.6318 22.4273 26.6355 22.0917C26.6403 21.6647 26.5403 21.4423 26.2883 21.1101C25.9197 20.6243 25.3371 20.2624 24.8008 19.9869C24.5121 19.8387 24.1188 19.9656 23.8191 20.0084" stroke="#323232" stroke-linecap="round"/>
<path d="M29 25L30 19L27.5 18.5L33 19.5" stroke="#323232" stroke-linecap="round" stroke-linejoin="round"/>
<path d="M35.2389 21.5516C34.805 21.5034 34.3272 21.3701 33.9079 21.573C33.5405 21.7508 33.318 21.9674 33.0227 22.2375C32.68 22.5508 32.4954 23.036 32.3089 23.4592C32.1426 23.8367 32.0286 24.2463 32.2489 24.6294C32.4444 24.9694 32.8186 25.157 33.1556 25.3325C33.7303 25.6316 34.3198 25.7568 34.9688 25.7568" stroke="#323232" stroke-linecap="round"/>
<path d="M32.7734 23.567C33.1529 23.567 33.5233 23.6759 33.8996 23.6759" stroke="#323232" stroke-linecap="round"/>
<path d="M40.8395 21.6415C40.0197 21.6415 38.9746 21.4501 38.4135 22.1865C38.1655 22.512 38.0114 22.9871 38.3772 23.2844C38.8354 23.6567 39.2515 23.9656 39.5518 24.4913C39.7694 24.872 40.0878 25.3893 40.0766 25.8435C40.0663 26.2603 39.7163 26.7093 39.3702 26.9091C38.6126 27.3464 37.7576 27.2724 36.916 27.2724" stroke="#323232" stroke-linecap="round"/>
</svg>
