<svg width="35" height="35" viewBox="0 0 35 35" fill="none" xmlns="http://www.w3.org/2000/svg">
<rect width="35" height="35" rx="8" fill="#0066FF"/>
<path d="M8.63659 16.28C8.63659 18.28 9.44459 19.28 11.0606 19.28C11.4286 19.28 11.7726 19.232 12.0926 19.136C12.4126 19.04 12.6846 18.928 12.9086 18.8V13.088C12.7326 13.056 12.5246 13.032 12.2846 13.016C12.0446 12.984 11.7646 12.968 11.4446 12.968C10.5006 12.968 9.79659 13.28 9.33259 13.904C8.86859 14.528 8.63659 15.32 8.63659 16.28ZM16.4846 21.416C16.4846 23.48 15.9566 25.008 14.9006 26C13.8606 27.008 12.2446 27.512 10.0526 27.512C9.28459 27.512 8.51659 27.44 7.74859 27.296C6.98059 27.168 6.26859 26.992 5.61259 26.768L6.23659 23.768C6.79659 23.992 7.38059 24.168 7.98859 24.296C8.61259 24.424 9.31659 24.488 10.1006 24.488C11.1246 24.488 11.8446 24.264 12.2606 23.816C12.6926 23.368 12.9086 22.792 12.9086 22.088V21.632C12.5246 21.808 12.1246 21.944 11.7086 22.04C11.3086 22.12 10.8686 22.16 10.3886 22.16C8.64459 22.16 7.30859 21.648 6.38059 20.624C5.45259 19.584 4.98859 18.136 4.98859 16.28C4.98859 15.352 5.13259 14.512 5.42059 13.76C5.70859 12.992 6.12459 12.336 6.66859 11.792C7.22859 11.248 7.90859 10.832 8.70859 10.544C9.50859 10.24 10.4126 10.088 11.4206 10.088C11.8526 10.088 12.2926 10.112 12.7406 10.16C13.2046 10.192 13.6606 10.24 14.1086 10.304C14.5566 10.368 14.9806 10.448 15.3806 10.544C15.7966 10.624 16.1646 10.712 16.4846 10.808V21.416ZM18.6386 10.808C19.2466 10.632 20.0306 10.472 20.9906 10.328C21.9506 10.168 22.9586 10.088 24.0146 10.088C25.0866 10.088 25.9746 10.232 26.6786 10.52C27.3986 10.792 27.9666 11.184 28.3826 11.696C28.7986 12.208 29.0946 12.816 29.2706 13.52C29.4466 14.224 29.5346 15.008 29.5346 15.872V23H25.9586V16.304C25.9586 15.152 25.8066 14.336 25.5026 13.856C25.1986 13.376 24.6306 13.136 23.7986 13.136C23.5426 13.136 23.2706 13.152 22.9826 13.184C22.6946 13.2 22.4386 13.224 22.2146 13.256V23H18.6386V10.808Z" fill="white"/>
</svg>
